<svg xmlns="http://www.w3.org/2000/svg" xmlns:xlink="http://www.w3.org/1999/xlink" width="233" height="235" viewBox="0 0 233 235">
  <defs>
    <clipPath id="clip-path">
      <rect id="Rectangle_243" data-name="Rectangle 243" width="233" height="235" transform="translate(0 0.381)" fill="#fff" stroke="#707070" stroke-width="1"/>
    </clipPath>
    <clipPath id="clip-path-2">
      <path id="Path_2164" data-name="Path 2164" d="M2020.6,790.747a65.447,65.447,0,0,1,16.24,3.323h0a65.671,65.671,0,0,1,44.267,62.035,66.5,66.5,0,0,1-1.229,12.727,65.819,65.819,0,0,1-37.058,46.919,64.086,64.086,0,0,1-7.622,2.921,65.389,65.389,0,0,1-14.6,2.792v6.865a72.475,72.475,0,0,0,0-144.6Z" transform="translate(-2020.598 -783.732)" fill="none"/>
    </clipPath>
    <linearGradient id="linear-gradient" x1="-7.193" y1="2.674" x2="-7.19" y2="2.674" gradientUnits="objectBoundingBox">
      <stop offset="0" stop-color="#fa860b"/>
      <stop offset="1" stop-color="#e0450e"/>
    </linearGradient>
    <clipPath id="clip-path-3">
      <path id="Path_2165" data-name="Path 2165" d="M1682.92,682.312s1.163,12.172-5.515,18.2c-.127.027-.256.051-.383.079a79.439,79.439,0,0,0-25.076,9.765c-9.539,1.557-18.111-8.826-18.111-8.826l-5.435,5.441-5.442,5.438-5.438,5.438s9.435,7.788,8.972,16.781a79.64,79.64,0,0,0-11.053,24.963c-5.649,7.833-19.037,6.554-19.037,6.554V789.22s12.175-1.167,18.2,5.513c.256,1.3.55,2.6.87,3.877a79.449,79.449,0,0,0,7.488,19q.719,1.31,1.487,2.589a15.577,15.577,0,0,1-2.191,10.072,31.783,31.783,0,0,1-6.633,8.037l5.438,5.438,5.438,5.44,5.439,5.438s7.788-9.435,16.774-8.971a79.667,79.667,0,0,0,18.462,9.136q2.4.821,4.86,1.5c.547.15,1.092.291,1.647.427,7.832,5.646,6.554,19.035,6.554,19.035h7.885v-31.36a65.335,65.335,0,0,1-14.648-2.793,64.1,64.1,0,0,1-7.622-2.921,65.312,65.312,0,0,1-36.969-46.479,66.274,66.274,0,0,1-1.318-13.167,65.408,65.408,0,0,1,60.557-65.363V682.312Z" transform="translate(-1596.402 -682.312)" fill="none"/>
    </clipPath>
    <linearGradient id="linear-gradient-2" x1="-4.177" y1="2.125" x2="-4.174" y2="2.125" xlink:href="#linear-gradient"/>
    <clipPath id="clip-path-4">
      <rect id="Rectangle_238" data-name="Rectangle 238" width="960" height="575" transform="translate(-0.268 0.46)" fill="none"/>
    </clipPath>
    <clipPath id="clip-path-5">
      <path id="Path_2170" data-name="Path 2170" d="M1779.89,628.342q-2.231,7.512-4.972,16.325-3.322,10.633-7.447,23.11c-9.967,30.028-24.879,44.93-35.721,52.164a64.883,64.883,0,0,0,17.881,33.182c.175.175.352.351.53.523.132.13.264.259.4.386.307.3.614.589.926.873.2.19.407.377.614.562s.394.355.6.53c.13.114.258.226.387.336s.238.208.358.31q.608.523,1.228,1.027c18.322-40.737,27.4-83.345,31.892-115.77,1.7-12.294,2.75-23.123,3.39-31.833,1-13.593,1.017-22.025,1.017-22.812-.3,1.348-3.506,15.558-11.075,41.092" transform="translate(-1731.747 -587.255)" fill="none"/>
    </clipPath>
    <linearGradient id="linear-gradient-3" x1="-7.018" y1="2.546" x2="-7.014" y2="2.546" xlink:href="#linear-gradient"/>
    <clipPath id="clip-path-6">
      <path id="Path_2171" data-name="Path 2171" d="M2021.4,680.312v31.349a65.576,65.576,0,0,1,22.269,125.011,64.127,64.127,0,0,1-7.621,2.92,65.343,65.343,0,0,1-14.649,2.793v31.351h7.885s-1.276-13.389,6.553-19.035c.551-.136,1.1-.28,1.647-.427q2.459-.67,4.86-1.5a79.7,79.7,0,0,0,18.462-9.136c8.986-.467,16.774,8.971,16.774,8.971l5.441-5.438,5.438-5.441,5.438-5.438a31.786,31.786,0,0,1-6.633-8.036,15.57,15.57,0,0,1-2.191-10.072q.767-1.278,1.487-2.589a79.448,79.448,0,0,0,7.488-19q.483-1.921.872-3.877c6.028-6.678,18.2-5.513,18.2-5.513v-23.06s-13.389,1.279-19.037-6.554a79.678,79.678,0,0,0-11.055-24.963c-.467-8.986,8.972-16.781,8.972-16.781l-5.438-5.438-5.443-5.438-5.435-5.441s-8.573,10.383-18.111,8.826a79.426,79.426,0,0,0-25.076-9.765c-.127-.028-.258-.052-.384-.079-6.678-6.028-5.514-18.2-5.514-18.2Z" transform="translate(-2021.399 -680.311)" fill="none"/>
    </clipPath>
    <linearGradient id="linear-gradient-4" x1="-5.289" y1="2.127" x2="-5.286" y2="2.127" xlink:href="#linear-gradient"/>
    <clipPath id="clip-path-7">
      <path id="Path_2176" data-name="Path 2176" d="M2022.52,608.065c.641,8.712,1.688,19.539,3.391,31.833,4.493,32.431,13.569,75.033,31.891,115.77q.619-.5,1.228-1.027c.119-.1.239-.2.358-.31s.256-.223.386-.335c.2-.175.4-.351.6-.53s.411-.371.614-.562c.312-.286.619-.578.926-.873.135-.127.267-.258.4-.386.177-.172.355-.347.53-.523a64.883,64.883,0,0,0,17.881-33.182c-10.843-7.235-25.76-22.136-35.721-52.164q-4.133-12.462-7.447-23.109-2.747-8.8-4.972-16.325c-7.569-25.534-10.774-39.744-11.075-41.092,0,.788.017,9.22,1.017,22.813" transform="translate(-2021.504 -585.25)" fill="none"/>
    </clipPath>
    <linearGradient id="linear-gradient-5" x1="-8.193" y1="2.548" x2="-8.188" y2="2.548" xlink:href="#linear-gradient"/>
  </defs>
  <g id="Mask_Group_32" data-name="Mask Group 32" transform="translate(0 -0.381)" clip-path="url(#clip-path)">
    <g id="Group_957" data-name="Group 957" transform="translate(120.85 58.694)" clip-path="url(#clip-path-2)">
      <rect id="Rectangle_236" data-name="Rectangle 236" width="67.41" height="144.597" transform="translate(0.003)" fill="url(#linear-gradient)"/>
    </g>
    <g id="Group_959" data-name="Group 959" transform="translate(19.058 34.353)" clip-path="url(#clip-path-3)">
      <rect id="Rectangle_237" data-name="Rectangle 237" width="91.72" height="193.424" transform="translate(-0.003)" fill="url(#linear-gradient-2)"/>
    </g>
    <g id="Group_961" data-name="Group 961" transform="translate(-363.732 -130.079)" clip-path="url(#clip-path-4)">
      <path id="Path_2166" data-name="Path 2166" d="M1922.5,682.313s1.164,12.172-5.514,18.2c-.128.027-.258.051-.384.079q-2.231,7.512-4.972,16.325a64.951,64.951,0,0,1,11.638-2.772c1.7-12.294,2.75-23.122,3.391-31.833Z" transform="translate(-1453.195 -517.88)" fill="#fa860b"/>
      <path id="Path_2167" data-name="Path 2167" d="M1745.03,1399.21c.036-.04.076-.088.127-.15l-.127.15" transform="translate(-1326.577 -1062.626)" fill="#e0710e"/>
      <path id="Path_2168" data-name="Path 2168" d="M1745.03,1399.21c.036-.04.076-.088.127-.15l-.127.15" transform="translate(-1326.577 -1062.626)" fill="#fa860b"/>
      <path id="Path_2169" data-name="Path 2169" d="M1764.93,586.916c-.3,1.348-3.506,15.558-11.075,41.092q-1.178,3.966-2.5,8.3a72.487,72.487,0,0,0,13.6,142.361V586.816a.362.362,0,0,1-.024.1m-40.378,166.817c.175.169.354.334.53.5-.177-.166-.355-.331-.53-.5m1.008.948.356.326-.356-.326m1.18,1.063.25.219-.25-.219m.854.734q.373.317.749.626-.377-.31-.749-.626m1.321,1.093.309.249-.309-.249m1.273,1,.063.049-.063-.049m1.1.825.3.217-.3-.217m1.134.812.256.18-.256-.18m1.315.9.255.166-.255-.166m1.1.717.332.21-.332-.21m1.348.837.109.066-.109-.066m1.177.69.352.2-.352-.2m1.2.671.3.166-.3-.166m1.412.749.3.15-.3-.15m1.182.6.346.168-.346-.168m.257-97.93c-9.967,30.028-24.88,44.93-35.721,52.164a65.7,65.7,0,0,1,43.163-75.274q-3.322,10.633-7.447,23.11" transform="translate(-1290.447 -445.295)" fill="#fa860b"/>
    </g>
    <g id="Group_963" data-name="Group 963" transform="translate(51.532 11.545)" clip-path="url(#clip-path-5)">
      <rect id="Rectangle_239" data-name="Rectangle 239" width="59.215" height="170.422" transform="translate(0.004 -0.004)" fill="url(#linear-gradient-3)"/>
    </g>
    <g id="Group_965" data-name="Group 965" transform="translate(121.044 33.872)" clip-path="url(#clip-path-6)">
      <rect id="Rectangle_240" data-name="Rectangle 240" width="91.72" height="193.424" transform="translate(0.003 0.001)" fill="url(#linear-gradient-4)"/>
    </g>
    <path id="Path_2172" data-name="Path 2172" d="M2025.74,680.312c.641,8.712,1.688,19.539,3.391,31.833a64.932,64.932,0,0,1,11.638,2.772q-2.747-8.8-4.972-16.325c-.127-.028-.257-.052-.383-.079-6.678-6.028-5.514-18.2-5.514-18.2Z" transform="translate(-1903.653 -646.439)" fill="#fa860b"/>
    <path id="Path_2173" data-name="Path 2173" d="M2254.56,1397.21c-.036-.041-.077-.088-.127-.15l.127.15" transform="translate(-2077.471 -1191.184)" fill="#e0710e"/>
    <path id="Path_2174" data-name="Path 2174" d="M2254.56,1397.21c-.036-.041-.077-.088-.127-.15l.127.15" transform="translate(-2077.471 -1191.184)" fill="#fa860b"/>
    <path id="Path_2175" data-name="Path 2175" d="M2021.4,584.814V776.666a72.487,72.487,0,0,0,13.6-142.36q-1.32-4.33-2.5-8.3c-7.569-25.534-10.775-39.744-11.076-41.092-.016-.07-.024-.1-.024-.1m39.854,167.423c.177-.166.355-.331.53-.5-.175.168-.354.334-.53.5m-.836.774.357-.327-.357.327m-1.075.956.25-.219-.25.219M2058,755.11q.376-.31.749-.626-.373.316-.749.626m-.881.714.309-.249-.309.249m-1.028.8.063-.049-.063.049m-1.337.993.3-.217-.3.217m-1.09.774.256-.18-.256.18m-1.313.887.255-.168-.255.168m-1.183.761.333-.21-.333.21m-1.128.693.109-.066-.109.066m-1.42.825.352-.2-.352.2m-1.151.638.3-.166-.3.166m-1.4.734.3-.15-.3.15m-1.233.611.346-.168-.346.168m-7.358-121.208a65.7,65.7,0,0,1,43.16,75.29c-10.84-7.251-25.757-22.151-35.718-52.18q-4.133-12.462-7.446-23.111" transform="translate(-1900.354 -573.857)" fill="#fa860b"/>
    <rect id="Rectangle_241" data-name="Rectangle 241" width="960" height="575" transform="translate(-364 -129.619)" fill="none"/>
    <g id="Group_969" data-name="Group 969" transform="translate(121.077 11.058)" clip-path="url(#clip-path-7)">
      <rect id="Rectangle_242" data-name="Rectangle 242" width="59.215" height="170.422" transform="translate(-0.006 0.003)" fill="url(#linear-gradient-5)"/>
    </g>
  </g>
</svg>
