<svg xmlns="http://www.w3.org/2000/svg" xmlns:xlink="http://www.w3.org/1999/xlink" width="1102.484" height="235" viewBox="0 0 1102.484 235">
    <defs>
        <clipPath id="clip-path">
            <rect id="Rectangle_243" data-name="Rectangle 243" width="233" height="235" transform="translate(0 0.381)" fill="#fff" stroke="#707070" stroke-width="1"/>
        </clipPath>
        <clipPath id="clip-path-2">
            <path id="Path_2164" data-name="Path 2164" d="M2020.6,790.747a65.449,65.449,0,0,1,16.24,3.323h0a65.671,65.671,0,0,1,44.267,62.035,66.516,66.516,0,0,1-1.229,12.727,65.819,65.819,0,0,1-37.058,46.919,64.1,64.1,0,0,1-7.622,2.921,65.39,65.39,0,0,1-14.6,2.792v6.865a72.475,72.475,0,0,0,0-144.6Z" transform="translate(-2020.598 -783.732)" fill="none"/>
        </clipPath>
        <linearGradient id="linear-gradient" x1="-7.193" y1="2.674" x2="-7.19" y2="2.674" gradientUnits="objectBoundingBox">
            <stop offset="0" stop-color="#fa860b"/>
            <stop offset="1" stop-color="#e0450e"/>
        </linearGradient>
        <clipPath id="clip-path-3">
            <path id="Path_2165" data-name="Path 2165" d="M1682.92,682.312s1.163,12.172-5.515,18.2c-.127.027-.256.051-.383.079a79.44,79.44,0,0,0-25.076,9.765c-9.539,1.557-18.111-8.826-18.111-8.826l-5.435,5.441-5.442,5.438-5.438,5.438s9.435,7.788,8.972,16.781a79.635,79.635,0,0,0-11.053,24.963c-5.649,7.833-19.037,6.554-19.037,6.554V789.22s12.175-1.167,18.2,5.513c.256,1.3.55,2.6.87,3.877a79.448,79.448,0,0,0,7.488,19q.719,1.31,1.487,2.589a15.577,15.577,0,0,1-2.191,10.072,31.783,31.783,0,0,1-6.633,8.037l5.438,5.438,5.438,5.44,5.439,5.438s7.788-9.435,16.774-8.971a79.667,79.667,0,0,0,18.462,9.136q2.4.821,4.86,1.5c.547.15,1.092.291,1.647.427,7.832,5.646,6.554,19.035,6.554,19.035h7.885v-31.36a65.338,65.338,0,0,1-14.648-2.793,64.09,64.09,0,0,1-7.622-2.921,65.312,65.312,0,0,1-36.969-46.479,66.273,66.273,0,0,1-1.318-13.167,65.408,65.408,0,0,1,60.557-65.363V682.312Z" transform="translate(-1596.402 -682.312)" fill="none"/>
        </clipPath>
        <linearGradient id="linear-gradient-2" x1="-4.177" y1="2.125" x2="-4.174" y2="2.125" xlink:href="#linear-gradient"/>
        <clipPath id="clip-path-4">
            <rect id="Rectangle_238" data-name="Rectangle 238" width="960" height="575" transform="translate(-0.268 0.46)" fill="none"/>
        </clipPath>
        <clipPath id="clip-path-5">
            <path id="Path_2170" data-name="Path 2170" d="M1779.89,628.342q-2.231,7.512-4.972,16.325-3.322,10.633-7.447,23.11c-9.967,30.028-24.879,44.93-35.721,52.164a64.883,64.883,0,0,0,17.881,33.182c.175.175.352.351.53.523.132.13.264.259.4.386.307.3.614.589.926.873.2.19.407.377.614.562s.394.355.6.53c.13.114.258.226.387.336s.238.208.358.31q.608.523,1.228,1.027c18.322-40.737,27.4-83.345,31.892-115.77,1.7-12.294,2.75-23.123,3.39-31.833,1-13.593,1.017-22.025,1.017-22.812-.3,1.348-3.506,15.558-11.075,41.092" transform="translate(-1731.747 -587.255)" fill="none"/>
        </clipPath>
        <linearGradient id="linear-gradient-3" x1="-7.018" y1="2.546" x2="-7.014" y2="2.546" xlink:href="#linear-gradient"/>
        <clipPath id="clip-path-6">
            <path id="Path_2171" data-name="Path 2171" d="M2021.4,680.312v31.349a65.576,65.576,0,0,1,22.269,125.011,64.148,64.148,0,0,1-7.621,2.92,65.342,65.342,0,0,1-14.649,2.793v31.351h7.885s-1.276-13.389,6.553-19.035c.551-.136,1.1-.28,1.647-.427q2.459-.67,4.86-1.5a79.691,79.691,0,0,0,18.462-9.136c8.986-.467,16.774,8.971,16.774,8.971l5.441-5.438,5.438-5.441,5.438-5.438a31.787,31.787,0,0,1-6.633-8.036,15.572,15.572,0,0,1-2.191-10.072q.767-1.278,1.487-2.589a79.438,79.438,0,0,0,7.488-19q.483-1.921.872-3.877c6.028-6.678,18.2-5.513,18.2-5.513v-23.06s-13.389,1.279-19.037-6.554a79.673,79.673,0,0,0-11.055-24.963c-.467-8.986,8.972-16.781,8.972-16.781l-5.438-5.438-5.443-5.438-5.435-5.441s-8.573,10.383-18.111,8.826a79.424,79.424,0,0,0-25.076-9.765c-.127-.028-.258-.052-.384-.079-6.678-6.028-5.514-18.2-5.514-18.2Z" transform="translate(-2021.399 -680.311)" fill="none"/>
        </clipPath>
        <linearGradient id="linear-gradient-4" x1="-5.289" y1="2.127" x2="-5.286" y2="2.127" xlink:href="#linear-gradient"/>
        <clipPath id="clip-path-7">
            <path id="Path_2176" data-name="Path 2176" d="M2022.52,608.065c.641,8.712,1.688,19.539,3.391,31.833,4.493,32.431,13.569,75.033,31.891,115.77q.619-.5,1.228-1.027c.119-.1.239-.2.358-.31s.256-.223.386-.335c.2-.175.4-.351.6-.53s.411-.371.614-.562c.312-.286.619-.578.926-.873.135-.127.267-.258.4-.386.177-.172.355-.347.53-.523a64.883,64.883,0,0,0,17.881-33.182c-10.843-7.235-25.76-22.136-35.721-52.164q-4.133-12.462-7.447-23.109-2.747-8.8-4.972-16.325c-7.569-25.534-10.774-39.744-11.075-41.092,0,.788.017,9.22,1.017,22.813" transform="translate(-2021.504 -585.25)" fill="none"/>
        </clipPath>
        <linearGradient id="linear-gradient-5" x1="-8.193" y1="2.548" x2="-8.188" y2="2.548" xlink:href="#linear-gradient"/>
        <clipPath id="clip-path-8">
            <path id="Path_2167" data-name="Path 2167" d="M1338.13,1549.66,1328,1591.85h32.066l-19.841,82.707,50.03.177,19.884-82.884h31.314l10.128-42.194Z" transform="translate(-1328 -1549.66)"/>
        </clipPath>
        <linearGradient id="linear-gradient-6" x1="-6.49" y1="4.092" x2="-6.485" y2="4.092" xlink:href="#linear-gradient"/>
        <clipPath id="clip-path-9">
            <path id="Path_2169" data-name="Path 2169" d="M1549.6,1643.04a40.114,40.114,0,0,1,4.875-19.5c3.751-6.376,8.814-9.377,16.5-9.377,8.438,0,12.564,3.376,12.564,10.69,0,6.938-2.812,17.064-6.376,22.5-3.75,5.813-9.189,9-15.564,9-8.064,0-12-4.5-12-13.315m-19.878-54.193c-15.189,11.439-25.315,35.441-25.315,59.82,0,17.065,6.376,29.441,18,35.254,7.5,3.751,17.814,5.44,32.817,5.44,27,0,43.693-6.563,56.257-22.314,11.252-13.875,18.189-34.13,18.189-53.069,0-25.316-15.939-37.317-49.694-37.317-23.624,0-39.376,3.748-50.256,12.189" transform="translate(-1504.406 -1576.666)"/>
        </clipPath>
        <linearGradient id="linear-gradient-7" x1="-7.264" y1="4.39" x2="-7.259" y2="4.39" xlink:href="#linear-gradient"/>
        <clipPath id="clip-path-10">
            <path id="Path_2171-2" data-name="Path 2171" d="M1752.55,1644.03c0-5.814,2.438-14.627,5.44-19.315,3.375-5.623,8.438-8.252,15.753-8.252,7.688,0,11.439,3.188,11.439,9.752a46.02,46.02,0,0,1-4.689,18.564,17.341,17.341,0,0,1-16.127,10.126c-7.126,0-11.814-4.312-11.814-10.876m11.063-43.691h-1.125c2.628-7.125,3.187-9.188,6-20.439h-47.065L1683,1737.86h48.9c7.877-33.567,14.646-64.579,15.583-70.768h.75c1.875,15.565,9.188,21,28.316,21,22.691,0,38.817-10.314,48.005-30.941,6.939-15.377,12.564-38.63,12.564-52.131,0-18.938-10.689-27.75-33.378-27.75-21.193,0-30.562,5.249-40.129,23.067" transform="translate(-1683 -1577.276)"/>
        </clipPath>
        <linearGradient id="linear-gradient-8" x1="-6.593" y1="3.085" x2="-6.589" y2="3.085" xlink:href="#linear-gradient"/>
    </defs>
    <g id="Group_65" data-name="Group 65" transform="translate(438 -4501)">
        <g id="Group_1" data-name="Group 1" transform="translate(-1194 5496)">
            <g id="Mask_Group_32" data-name="Mask Group 32" transform="translate(756 -995.381)" clip-path="url(#clip-path)">
                <g id="Group_957" data-name="Group 957" transform="translate(120.85 58.694)" clip-path="url(#clip-path-2)">
                    <rect id="Rectangle_236" data-name="Rectangle 236" width="67.41" height="144.597" transform="translate(0.003)" fill="url(#linear-gradient)"/>
                </g>
                <g id="Group_959" data-name="Group 959" transform="translate(19.058 34.353)" clip-path="url(#clip-path-3)">
                    <rect id="Rectangle_237" data-name="Rectangle 237" width="91.72" height="193.424" transform="translate(-0.003)" fill="url(#linear-gradient-2)"/>
                </g>
                <g id="Group_961" data-name="Group 961" transform="translate(-363.732 -130.079)" clip-path="url(#clip-path-4)">
                    <path id="Path_2166" data-name="Path 2166" d="M1922.5,682.313s1.164,12.172-5.514,18.2c-.128.027-.258.051-.384.079q-2.231,7.512-4.972,16.325a64.946,64.946,0,0,1,11.638-2.772c1.7-12.294,2.75-23.122,3.391-31.833Z" transform="translate(-1453.195 -517.88)" fill="#fa860b"/>
                    <path id="Path_2167-2" data-name="Path 2167" d="M1745.03,1399.21c.036-.04.076-.088.127-.15l-.127.15" transform="translate(-1326.577 -1062.626)" fill="#e0710e"/>
                    <path id="Path_2168" data-name="Path 2168" d="M1745.03,1399.21c.036-.04.076-.088.127-.15l-.127.15" transform="translate(-1326.577 -1062.626)" fill="#fa860b"/>
                    <path id="Path_2169-2" data-name="Path 2169" d="M1764.93,586.916c-.3,1.348-3.506,15.558-11.075,41.092q-1.178,3.966-2.5,8.3a72.487,72.487,0,0,0,13.6,142.361V586.816a.366.366,0,0,1-.024.1m-40.378,166.817c.175.169.354.334.53.5-.177-.166-.355-.331-.53-.5m1.008.948.356.326-.356-.326m1.18,1.063.25.219-.25-.219m.854.734q.373.317.749.626-.377-.31-.749-.626m1.321,1.093.309.249-.309-.249m1.273,1,.063.049-.063-.049m1.1.825.3.217-.3-.217m1.134.812.256.18-.256-.18m1.315.9.255.166-.255-.166m1.1.717.332.21-.332-.21m1.348.837.109.066-.109-.066m1.177.69.352.2-.352-.2m1.2.671.3.166-.3-.166m1.412.749.3.15-.3-.15m1.182.6.346.168-.346-.168m.257-97.93c-9.967,30.028-24.88,44.93-35.721,52.164a65.7,65.7,0,0,1,43.163-75.274q-3.322,10.633-7.447,23.11" transform="translate(-1290.447 -445.295)" fill="#fa860b"/>
                </g>
                <g id="Group_963" data-name="Group 963" transform="translate(51.532 11.545)" clip-path="url(#clip-path-5)">
                    <rect id="Rectangle_239" data-name="Rectangle 239" width="59.215" height="170.422" transform="translate(0.004 -0.004)" fill="url(#linear-gradient-3)"/>
                </g>
                <g id="Group_965" data-name="Group 965" transform="translate(121.044 33.872)" clip-path="url(#clip-path-6)">
                    <rect id="Rectangle_240" data-name="Rectangle 240" width="91.72" height="193.424" transform="translate(0.003 0.001)" fill="url(#linear-gradient-4)"/>
                </g>
                <path id="Path_2172" data-name="Path 2172" d="M2025.74,680.312c.641,8.712,1.688,19.539,3.391,31.833a64.941,64.941,0,0,1,11.638,2.772q-2.747-8.805-4.972-16.325c-.127-.028-.257-.052-.383-.079-6.678-6.028-5.514-18.2-5.514-18.2Z" transform="translate(-1903.653 -646.439)" fill="#fa860b"/>
                <path id="Path_2173" data-name="Path 2173" d="M2254.56,1397.21c-.036-.041-.077-.088-.127-.15l.127.15" transform="translate(-2077.471 -1191.184)" fill="#e0710e"/>
                <path id="Path_2174" data-name="Path 2174" d="M2254.56,1397.21c-.036-.041-.077-.088-.127-.15l.127.15" transform="translate(-2077.471 -1191.184)" fill="#fa860b"/>
                <path id="Path_2175" data-name="Path 2175" d="M2021.4,584.814V776.666a72.487,72.487,0,0,0,13.6-142.36q-1.32-4.33-2.5-8.3c-7.569-25.534-10.775-39.744-11.076-41.092-.016-.07-.024-.1-.024-.1m39.854,167.423c.177-.166.355-.331.53-.5-.175.168-.354.334-.53.5m-.836.774.357-.327-.357.327m-1.075.956.25-.219-.25.219M2058,755.11q.376-.31.749-.626-.373.316-.749.626m-.881.714.309-.249-.309.249m-1.028.8.063-.049-.063.049m-1.337.993.3-.217-.3.217m-1.09.774.256-.18-.256.18m-1.313.887.255-.168-.255.168m-1.183.761.333-.21-.333.21m-1.128.693.109-.066-.109.066m-1.42.825.352-.2-.352.2m-1.151.638.3-.166-.3.166m-1.4.734.3-.15-.3.15m-1.233.611.346-.168-.346.168m-7.358-121.208a65.7,65.7,0,0,1,43.16,75.29c-10.84-7.251-25.757-22.151-35.718-52.18q-4.133-12.462-7.446-23.111" transform="translate(-1900.354 -573.857)" fill="#fa860b"/>
                <rect id="Rectangle_241" data-name="Rectangle 241" width="960" height="575" transform="translate(-364 -129.619)" fill="none"/>
                <g id="Group_969" data-name="Group 969" transform="translate(121.077 11.058)" clip-path="url(#clip-path-7)">
                    <rect id="Rectangle_242" data-name="Rectangle 242" width="59.215" height="170.422" transform="translate(-0.006 0.003)" fill="url(#linear-gradient-5)"/>
                </g>
            </g>
            <g id="Group_962" data-name="Group 962" transform="translate(994.191 -949)">
                <g id="Group_957-2" data-name="Group 957" transform="translate(0 3.19)" clip-path="url(#clip-path-8)">
                    <path id="Path_2166-2" data-name="Path 2166" d="M1327.57,1548.54l124.265.691-.7,125.756-124.265-.691Z" transform="translate(-1327.561 -1549.225)" fill="url(#linear-gradient-6)"/>
                </g>
                <g id="Group_959-2" data-name="Group 959" transform="translate(107.826 19.697)" clip-path="url(#clip-path-9)">
                    <path id="Path_2168-2" data-name="Path 2168" d="M1504.01,1575.52l125.885.7-.63,113.391-125.878-.7Z" transform="translate(-1504.011 -1576.22)" fill="url(#linear-gradient-7)"/>
                </g>
                <g id="Group_961-2" data-name="Group 961" transform="translate(216.99 20.07)" clip-path="url(#clip-path-10)">
                    <path id="Path_2170-2" data-name="Path 2170" d="M1682.44,1575.87l155,.862-.9,161.44-155-.862Z" transform="translate(-1682.432 -1576.729)" fill="url(#linear-gradient-8)"/>
                </g>
                <path id="Path_2172-2" data-name="Path 2172" d="M2066.85,1593.01a115.917,115.917,0,0,0-35.442-5.814c-9.938,0-18.19,1.688-22.689,4.5-9.188,6-16.5,22.315-16.5,37.129,0,9.376,3.938,14.064,12,14.064a25.045,25.045,0,0,0,6.751-.937l7.314-30.566h46.505L2052.6,1662.2c-14.064,8.063-36.755,13.314-58.319,13.314-19.127,0-34.5-5.251-43.506-14.627-6-6.376-9.189-16.127-9.189-28.316,0-24.378,8.626-50.256,21.944-65.445,12.751-14.814,33.941-22.69,60.757-22.69,19.689,0,37.129,3.188,51.943,9.189Z" transform="translate(-1566.537 -1544.441)" fill="#fff"/>
                <path id="Path_2173-2" data-name="Path 2173" d="M2197.49,1644.57a19.259,19.259,0,0,0-.187,3.188c0,8.439,5.813,11.439,22.315,11.439,10.314,0,22.878-1.687,41.254-5.813l-11.814,27.754c-18.753,5.251-33.379,7.313-50.256,7.313-31.879,0-47.065-11.814-47.065-36.755,0-23.253,9-48.568,21.943-61.507,10.126-10.313,26.065-15.377,48.568-15.377,16.5,0,27.378,1.875,35.441,6,9.563,4.876,14.627,14.252,14.627,26.253,0,11.251-1.875,19.877-7.876,37.5h-66.95Zm36.57-24.187a29.452,29.452,0,0,0,.563-5.063c0-6.939-4.688-10.5-13.692-10.5-10.313,0-17.439,5.813-19.5,15.564Z" transform="translate(-1648.237 -1556.248)" fill="#fff"/>
                <path id="Path_2174-2" data-name="Path 2174" d="M2468,1684.52h-47.443c.375-3.75,3-13.127,6-21.378h-.937c-8.814,17.252-18.753,23.065-39,23.065-21.752,0-33.007-10.876-33.007-32.067,0-16.877,6-40.317,13.875-54.381,9.563-17.44,22.877-24.939,43.88-24.939,20.253,0,29.066,7.126,29.066,24v2.628h.937l2.251-12.376c.938-5.623,1.125-6.751,2.251-10.126h47.443Zm-65.445-42.194c0,6.939,4.125,10.876,11.626,10.876,7.126,0,12.564-3.562,15.939-10.5,2.812-5.813,4.876-13.692,4.876-18.753,0-6.376-4.313-9.751-12.376-9.751-11.814,0-20.065,11.442-20.065,28.129" transform="translate(-1726.715 -1556.251)" fill="#fff"/>
                <path id="Path_2175-2" data-name="Path 2175" d="M2662.39,1629.18c-4.688-.375-6.751-.564-9.564-.564-8.252,0-15.377,1.875-20.252,5.44-4.313,3.188-8.064,10.688-10.5,21.19l-7.5,30.94H2567.13l25.315-105.575h42.569l-.75,2.812-1.875,9.188c-.75,3.188-1.5,6.189-2.438,9.189a38.042,38.042,0,0,0-.937,4.5h.562c4.689-11.626,8.252-17.064,13.692-21.19a29.987,29.987,0,0,1,18.377-6,47.522,47.522,0,0,1,12.374,1.5Z" transform="translate(-1809.726 -1557.919)" fill="#fff"/>
                <path id="Path_2176-2" data-name="Path 2176" d="M1805.54,1813.89v-19.52h7.633a8.99,8.99,0,0,1,6.893,2.64,9.934,9.934,0,0,1,2.506,7.157,9.69,9.69,0,0,1-2.562,7.1,9.281,9.281,0,0,1-7,2.614h-7.471Zm3.912-3.753h3.75a4.752,4.752,0,0,0,3.912-1.717,6.662,6.662,0,0,0,1.4-4.331,6.493,6.493,0,0,0-1.4-4.252,4.754,4.754,0,0,0-3.912-1.716h-3.75Z" transform="translate(-1513.649 -1641.604)" fill="#fff"/>
                <path id="Path_2177" data-name="Path 2177" d="M1852.31,1813.89l-4.12-7.1h-2.323v7.1h-3.912v-19.52h7.474a6.568,6.568,0,0,1,4.965,1.8,6.1,6.1,0,0,1,1.716,4.384,5.837,5.837,0,0,1-3.961,5.73l4.727,7.606Zm-6.442-15.9v5.282h3.2c2.033,0,3.037-1.161,3.037-2.667a2.516,2.516,0,0,0-2.693-2.615h-3.539Z" transform="translate(-1527.808 -1641.604)" fill="#fff"/>
                <path id="Path_2178" data-name="Path 2178" d="M1874.29,1813.89v-19.52h13.227v3.643h-9.3v4.2h8.612v3.643h-8.612v4.389h9.3v3.643Z" transform="translate(-1540.376 -1641.604)" fill="#fff"/>
                <path id="Path_2179" data-name="Path 2179" d="M1915.59,1813.89l-1.452-4.225h-6.814l-1.505,4.225h-4.1l7.448-19.517h3.2l7.342,19.517Zm-4.835-14.211-2.323,6.5h4.6Z" transform="translate(-1551.042 -1641.604)" fill="#fff"/>
                <path id="Path_2180" data-name="Path 2180" d="M1938.19,1813.89v-19.52h2.586l7.659,11.063,7.579-11.063h2.64v19.517h-3.906v-11.069l-5.678,8.166h-1.345l-5.678-8.166v11.069Z" transform="translate(-1565.218 -1641.604)" fill="#fff"/>
                <path id="Path_2181" data-name="Path 2181" d="M1996.8,1811.18a9.609,9.609,0,0,1-2.878-7.213,9.734,9.734,0,0,1,2.934-7.29,9.866,9.866,0,0,1,7.157-2.878,10.3,10.3,0,0,1,8.4,4.04l-2.615,2.562a6.969,6.969,0,0,0-5.572-2.827,5.955,5.955,0,0,0-4.437,1.823,6.2,6.2,0,0,0-1.8,4.569,6.051,6.051,0,0,0,6.206,6.234,6.969,6.969,0,0,0,5.678-2.852l2.693,2.457a10.679,10.679,0,0,1-8.609,4.146,10.009,10.009,0,0,1-7.157-2.773" transform="translate(-1586.88 -1641.383)" fill="#fff"/>
                <path id="Path_2182" data-name="Path 2182" d="M2041.83,1813.89l-1.453-4.225h-6.813l-1.505,4.225h-4.1l7.448-19.517h3.2l7.341,19.517Zm-4.83-14.21-2.323,6.5h4.6Z" transform="translate(-1600.119 -1641.604)" fill="#fff"/>
                <path id="Path_2183" data-name="Path 2183" d="M2074.78,1813.89l-4.12-7.1h-2.323v7.1h-3.912v-19.52h7.475a6.566,6.566,0,0,1,4.965,1.8,6.1,6.1,0,0,1,1.717,4.385,5.838,5.838,0,0,1-3.961,5.73l4.727,7.606h-4.569Zm-6.443-15.9v5.282h3.2c2.033,0,3.036-1.161,3.036-2.667a2.515,2.515,0,0,0-2.693-2.615h-3.539Z" transform="translate(-1614.296 -1641.604)" fill="#fff"/>
                <path id="Path_2184" data-name="Path 2184" d="M2123.28,1797.48h2.826v6.813c0,1.083.527,1.663,1.188,1.663.607,0,1.162-.4,1.664-1.214a5.688,5.688,0,0,0,.74-3.037,7.719,7.719,0,0,0-2.615-5.916,8.743,8.743,0,0,0-6.284-2.351,8.872,8.872,0,0,0-6.5,2.8,9.439,9.439,0,0,0,.133,13.284,9.283,9.283,0,0,0,6.784,2.774,11.913,11.913,0,0,0,7.051-2.431l1.294,2.166a11.627,11.627,0,0,1-3.671,2.007,14.059,14.059,0,0,1-4.806.845,12.023,12.023,0,1,1,8.028-20.863,10.025,10.025,0,0,1,3.327,7.553,7.766,7.766,0,0,1-1.637,5.044,4.96,4.96,0,0,1-3.988,1.98,3.05,3.05,0,0,1-3.118-1.956,4.6,4.6,0,0,1-3.988,1.956,5.114,5.114,0,0,1-3.83-1.638,5.707,5.707,0,0,1-1.531-4.095,5.815,5.815,0,0,1,1.531-4.12,5.079,5.079,0,0,1,3.884-1.664,4.34,4.34,0,0,1,3.512,1.531v-1.135Zm-.9,7.58a3.03,3.03,0,0,0,.872-2.192,3.152,3.152,0,0,0-.872-2.245,2.747,2.747,0,0,0-2.086-.924,3.025,3.025,0,0,0-3.01,3.143,2.972,2.972,0,0,0,2.984,3.09,2.884,2.884,0,0,0,2.112-.871" transform="translate(-1631.6 -1640.233)" fill="#fff"/>
                <path id="Path_2185" data-name="Path 2185" d="M2178.8,1813.89l-1.452-4.225h-6.812l-1.506,4.225h-4.095l7.448-19.517h3.2l7.342,19.517Zm-4.834-14.211-2.323,6.5h4.6Z" transform="translate(-1653.369 -1641.604)" fill="#fff"/>
                <path id="Path_2186" data-name="Path 2186" d="M2201.4,1813.89v-19.52h13.019v3.7H2205.3v4.382h8.007v3.674H2205.3v7.763Z" transform="translate(-1667.545 -1641.604)" fill="#fff"/>
                <path id="Path_2187" data-name="Path 2187" d="M2230.61,1813.89v-19.52h13.019v3.7h-9.114v4.382h8v3.674h-8v7.763Z" transform="translate(-1678.901 -1641.604)" fill="#fff"/>
                <path id="Path_2188" data-name="Path 2188" d="M2260.38,1811.06a9.7,9.7,0,0,1-2.9-7.13,10.123,10.123,0,1,1,10.143,10.01,9.858,9.858,0,0,1-7.238-2.88m11.6-11.65a6.122,6.122,0,0,0-8.663,0,6.516,6.516,0,0,0-.026,8.9,6.1,6.1,0,0,0,10.458-4.438,6.014,6.014,0,0,0-1.772-4.462" transform="translate(-1689.344 -1641.343)" fill="#fff"/>
                <path id="Path_2189" data-name="Path 2189" d="M2309.48,1813.89l-4.12-7.1h-2.323v7.1h-3.912v-19.52h7.475a6.568,6.568,0,0,1,4.966,1.8,6.1,6.1,0,0,1,1.717,4.384,5.838,5.838,0,0,1-3.962,5.73l4.728,7.606Zm-6.442-15.9v5.282h3.2c2.033,0,3.037-1.161,3.037-2.667a2.516,2.516,0,0,0-2.693-2.615h-3.54Z" transform="translate(-1705.538 -1641.604)" fill="#fff"/>
                <path id="Path_2190" data-name="Path 2190" d="M2331.45,1813.89v-19.52h7.633a8.992,8.992,0,0,1,6.894,2.64,9.937,9.937,0,0,1,2.506,7.157,9.693,9.693,0,0,1-2.561,7.1,9.281,9.281,0,0,1-7,2.614h-7.472Zm3.912-3.753h3.75a4.754,4.754,0,0,0,3.912-1.717,6.663,6.663,0,0,0,1.4-4.331,6.488,6.488,0,0,0-1.4-4.252,4.757,4.757,0,0,0-3.912-1.716h-3.75Z" transform="translate(-1718.102 -1641.604)" fill="#fff"/>
                <path id="Path_2191" data-name="Path 2191" d="M2377.29,1813.89l-1.452-4.225h-6.813l-1.5,4.225h-4.1l7.448-19.517h3.2l7.34,19.517Zm-4.834-14.211-2.323,6.5h4.6Z" transform="translate(-1730.534 -1641.604)" fill="#fff"/>
                <path id="Path_2192" data-name="Path 2192" d="M2414.97,1808.2a5.338,5.338,0,0,1-1.691,4.04,6.171,6.171,0,0,1-4.49,1.638h-8.9v-19.517h8.5a5.479,5.479,0,0,1,4.068,1.451,4.689,4.689,0,0,1,1.478,3.407,4.235,4.235,0,0,1-2.668,3.961,4.881,4.881,0,0,1,3.7,5.019m-11.223-10.434v4.252h3.83a2.238,2.238,0,0,0,2.483-2.192,2.1,2.1,0,0,0-2.323-2.06Zm4.279,12.677a2.593,2.593,0,1,0,0-5.149h-4.279v5.15h4.279Z" transform="translate(-1744.708 -1641.597)" fill="#fff"/>
                <path id="Path_2193" data-name="Path 2193" d="M2432.94,1813.89v-19.52h3.937v15.764h9.9v3.753Z" transform="translate(-1757.558 -1641.604)" fill="#fff"/>
                <path id="Path_2194" data-name="Path 2194" d="M2462.89,1813.89v-19.52h13.228v3.643h-9.3v4.2h8.613v3.643h-8.613v4.389h9.3v3.643Z" transform="translate(-1769.201 -1641.604)" fill="#fff"/>
                <path id="Path_2195" data-name="Path 2195" d="M2514.59,1794.37a6.649,6.649,0,0,1,5.15,1.875,6.453,6.453,0,0,1,1.744,4.569,6.235,6.235,0,0,1-1.8,4.543,7.328,7.328,0,0,1-5.387,1.8h-3.012v6.735h-3.908V1794.37Zm-.153,9.242a2.778,2.778,0,0,0,3.063-2.853,2.683,2.683,0,0,0-2.853-2.773H2511.3v5.623Z" transform="translate(-1786.5 -1641.604)" fill="#fff"/>
                <path id="Path_2196" data-name="Path 2196" d="M2548.5,1813.89l-4.121-7.1h-2.323v7.1h-3.911v-19.52h7.474a6.566,6.566,0,0,1,4.965,1.8,6.1,6.1,0,0,1,1.717,4.384,5.837,5.837,0,0,1-3.961,5.73l4.727,7.606Zm-6.448-15.9v5.282h3.2c2.034,0,3.037-1.161,3.037-2.667a2.516,2.516,0,0,0-2.693-2.615h-3.539Z" transform="translate(-1798.459 -1641.604)" fill="#fff"/>
                <path id="Rectangle_262" data-name="Rectangle 262" d="M0,0H3.935V19.517H0Z" transform="translate(759.445 152.766)" fill="#fff"/>
                <path id="Path_2197" data-name="Path 2197" d="M2588.2,1811.18a9.61,9.61,0,0,1-2.879-7.213,9.731,9.731,0,0,1,2.934-7.29,9.864,9.864,0,0,1,7.156-2.878,10.3,10.3,0,0,1,8.4,4.04l-2.615,2.562a6.97,6.97,0,0,0-5.572-2.827,5.955,5.955,0,0,0-4.437,1.823,6.2,6.2,0,0,0-1.8,4.569,6.051,6.051,0,0,0,6.207,6.234,6.967,6.967,0,0,0,5.677-2.852l2.693,2.457a10.68,10.68,0,0,1-8.609,4.146,10.01,10.01,0,0,1-7.158-2.773" transform="translate(-1816.797 -1641.383)" fill="#fff"/>
                <path id="Path_2199" data-name="Path 2199" d="M1370.69,1787.02h-8.1l-5.141,21.442H1344.5l5.141-21.442h-8.294l2.616-10.917h29.352Z" transform="translate(-1333.186 -1634.501)" fill="#fff"/>
                <path id="Path_2200" data-name="Path 2200" d="M1408.76,1796.67c-1.213-.1-1.746-.146-2.474-.146a8.934,8.934,0,0,0-5.239,1.406c-1.116.824-2.086,2.765-2.716,5.482l-1.941,8h-12.273l6.549-27.311h11.012l-.194.728-.485,2.377c-.194.824-.388,1.6-.63,2.377a9.853,9.853,0,0,0-.245,1.164h.146c1.213-3.008,2.134-4.415,3.541-5.482a7.762,7.762,0,0,1,4.754-1.552,12.293,12.293,0,0,1,3.2.388Z" transform="translate(-1349.815 -1637.463)" fill="#fff"/>
                <path id="Path_2201" data-name="Path 2201" d="M1454.42,1810.99h-12.272a31.586,31.586,0,0,1,1.553-5.53h-.245c-2.28,4.462-4.851,5.965-10.09,5.965-5.627,0-8.537-2.812-8.537-8.3a33.024,33.024,0,0,1,3.59-14.068c2.474-4.512,5.917-6.452,11.351-6.452,5.24,0,7.518,1.844,7.518,6.209v.679h.245l.582-3.2a13.5,13.5,0,0,1,.582-2.619h12.273Zm-16.931-10.917c0,1.8,1.067,2.812,3.008,2.812a4.377,4.377,0,0,0,4.124-2.717,12.853,12.853,0,0,0,1.261-4.851c0-1.65-1.115-2.523-3.2-2.523-3.051,0-5.191,2.961-5.191,7.274" transform="translate(-1365.643 -1637.033)" fill="#fff"/>
                <path id="Path_2202" data-name="Path 2202" d="M1499.91,1807.47a35.1,35.1,0,0,1,1.65-5.434h-.342a14.049,14.049,0,0,1-2.571,3.687c-1.6,1.455-4.27,2.28-7.471,2.28-5.627,0-8.489-2.765-8.489-8.3a34.189,34.189,0,0,1,2.911-12.855c2.522-5.336,6.063-7.617,11.885-7.617,5.335,0,7.567,1.844,7.567,6.21v.63h.34a77.747,77.747,0,0,1,1.6-8.053l1.067-4.463h12.321l-8.149,33.908h-12.32Zm-3.447-15.574a11.4,11.4,0,0,0-1.116,4.753c0,1.8,1.067,2.812,3.008,2.812a4.482,4.482,0,0,0,4.172-2.863,11.856,11.856,0,0,0,1.214-4.656c0-1.7-1.116-2.571-3.2-2.571a4.362,4.362,0,0,0-4.075,2.522" transform="translate(-1388.135 -1633.516)" fill="#fff"/>
                <path id="Path_2203" data-name="Path 2203" d="M1550.27,1806.92H1538l6.549-27.311a63.606,63.606,0,0,0,6.646.339,39.353,39.353,0,0,0,5.627-.339Zm-.293-28.814a11.252,11.252,0,0,1-3.881-.436c-.436-.194-.63-.631-.63-1.455a5.966,5.966,0,0,1,.921-3.2c.437-.485.776-.631,2.086-.776.63-.049,1.406-.1,1.747-.1h3.638c3.4,0,4.026.244,4.026,1.7a5.257,5.257,0,0,1-1.161,3.542c-.582.582-1.5.727-3.832.727h-2.913Z" transform="translate(-1409.64 -1632.961)" fill="#fff"/>
                <path id="Path_2204" data-name="Path 2204" d="M1582.21,1785.88a3.111,3.111,0,0,1-.291,1.067,7.986,7.986,0,0,0-.436,2.086c2.328-4.172,5.48-5.868,11.01-5.868,5.191,0,8.2,2.086,8.2,5.724a27.5,27.5,0,0,1-.728,5.531l-4.074,16.784h-12.273l3.251-13.583a15.027,15.027,0,0,0,.582-3.153c0-1.115-.825-1.8-2.328-1.8-2.329,0-3.784,1.552-4.609,4.951l-3.25,13.583h-12.273l6.549-27.311H1582.7Z" transform="translate(-1420.131 -1637.249)" fill="#fff"/>
                <path id="Path_2205" data-name="Path 2205" d="M1654.68,1804.94c-1.018,4.316-1.794,5.965-3.832,8-3.153,3.25-7.81,4.707-14.892,4.707a62.183,62.183,0,0,1-12.709-1.406l.728-6.549a46.648,46.648,0,0,0,9.847,1.261,11.992,11.992,0,0,0,6.452-1.455c1.455-.922,1.455-.922,2.571-4.609.145-.388.291-.776.436-1.261h-.244c-2.571,3.687-5.239,5.045-9.9,5.045-5.53,0-8.392-2.425-8.392-7.227,0-5,1.94-11.061,4.609-14.262,2.376-2.862,5.53-4.172,9.992-4.172,3.1,0,5.287.727,6.357,2.183.63.825.873,1.7,1.116,3.638h.244a19.322,19.322,0,0,1,.533-3.057c.34-1.455.34-1.455.437-1.941h11.735Zm-17.659-5.868c0,1.9.971,2.812,2.959,2.812a5.023,5.023,0,0,0,3.687-1.9,10.542,10.542,0,0,0,1.7-5.336c0-1.6-1.161-2.571-3.008-2.571-3.154,0-5.336,2.812-5.336,6.985" transform="translate(-1442.78 -1637.188)" fill="#fff"/>
                <path id="Path_2194-2" data-name="Path 2194" d="M2462.89,1813.89v-19.52h13.228v3.643h-9.3v4.2h8.613v3.643h-8.613v4.389h9.3v3.643Z" transform="translate(-1671.415 -1641.957)" fill="#fff"/>
            </g>
        </g>
    </g>
</svg>
